<?xml version="1.0" standalone="no"?>
<!DOCTYPE svg PUBLIC "-//W3C//DTD SVG 20010904//EN"
 "http://www.w3.org/TR/2001/REC-SVG-20010904/DTD/svg10.dtd">
<svg version="1.0" xmlns="http://www.w3.org/2000/svg"
 width="100.000000pt" height="100.000000pt" viewBox="0 0 100.000000 100.000000"
 preserveAspectRatio="xMidYMid meet">

<g transform="translate(0.000000,100.000000) scale(0.100000,-0.100000)"
fill="#000000" stroke="none">
<path d="M380 985 c-98 -27 -161 -64 -231 -134 -98 -98 -149 -218 -149 -351 0
-164 91 -331 228 -418 74 -48 188 -82 272 -82 131 0 273 62 362 158 59 63 82
103 112 194 46 137 26 293 -56 420 -110 173 -348 267 -538 213z m301 -63 c35
-16 74 -38 87 -48 l23 -19 -63 -1 c-43 0 -78 -7 -110 -22 -27 -12 -48 -24 -48
-26 0 -2 25 1 57 7 83 14 188 -13 255 -66 34 -27 69 -126 75 -212 5 -74 3 -88
-20 -139 -29 -63 -28 -62 -111 -70 -53 -4 -57 -3 -40 10 11 9 12 13 4 9 -8 -4
1 9 20 27 19 19 42 43 50 53 15 19 14 19 -10 2 -130 -92 -307 -115 -554 -72
-40 7 -116 44 -150 74 -18 15 -18 15 -8 -6 7 -12 31 -38 54 -59 24 -20 37 -34
31 -30 -7 4 -13 3 -13 -3 0 -15 -102 -1 -122 17 -33 28 -51 108 -45 192 6 81
42 179 76 211 52 48 175 78 254 62 26 -6 47 -9 47 -8 0 2 -19 13 -42 25 -30
16 -62 23 -105 24 -35 1 -63 2 -63 4 0 8 112 70 145 80 70 20 78 21 171 17 74
-3 102 -9 155 -33z"/>
<path d="M232 687 c-65 -36 -77 -129 -24 -182 19 -19 35 -25 71 -25 53 0 84
18 106 60 20 39 19 69 -4 104 -35 53 -98 71 -149 43z m29 -37 c23 -13 25 -33
4 -50 -33 -27 -74 17 -43 48 15 15 15 15 39 2z"/>
<path d="M653 680 c-40 -24 -53 -48 -53 -99 0 -109 159 -142 209 -44 27 53 4
121 -50 149 -38 19 -68 18 -106 -6z m47 -55 c0 -28 -34 -43 -55 -25 -19 16
-19 25 0 43 21 22 55 10 55 -18z"/>
</g>
</svg>
