<?xml version="1.0" standalone="no"?>
<!DOCTYPE svg PUBLIC "-//W3C//DTD SVG 20010904//EN"
 "http://www.w3.org/TR/2001/REC-SVG-20010904/DTD/svg10.dtd">
<svg version="1.0" xmlns="http://www.w3.org/2000/svg"
 width="331.000000pt" height="331.000000pt" viewBox="0 0 331.000000 331.000000"
 preserveAspectRatio="xMidYMid meet">

<g transform="translate(0.000000,331.000000) scale(0.100000,-0.100000)"
fill="#000000" stroke="none">
<path d="M1115 3042 c-2 -2 -18 -6 -36 -9 -42 -6 -100 -35 -163 -81 -66 -48
-151 -121 -151 -130 0 -4 -10 -20 -21 -37 -64 -90 -101 -189 -114 -309 -6 -50
-23 -143 -37 -206 -30 -138 -41 -325 -24 -397 26 -106 32 -123 42 -123 7 0 10
16 7 41 l-4 41 18 -24 c9 -12 26 -35 38 -50 11 -14 30 -51 41 -82 25 -64 44
-75 36 -18 l-6 37 23 -28 c25 -31 104 -87 123 -87 9 0 11 23 6 88 -5 85 -5 86
12 62 32 -44 69 -81 113 -112 42 -29 44 -29 64 -11 27 25 48 67 48 98 0 18 -7
28 -26 35 -35 14 -195 124 -221 152 -26 29 -40 75 -48 160 -4 37 -13 91 -21
120 -7 29 -14 69 -14 89 0 60 47 206 108 333 l57 120 7 -112 c3 -63 15 -142
26 -180 11 -37 25 -89 32 -115 8 -28 16 -43 20 -37 5 8 19 0 41 -24 l34 -37 1
124 c2 109 33 324 61 407 2 8 18 -25 34 -75 33 -103 32 -98 20 -91 -20 13 -3
-25 17 -40 12 -8 33 -36 46 -62 13 -26 50 -83 81 -126 l58 -80 -12 -142 c-6
-78 -11 -171 -11 -207 0 -36 -4 -68 -9 -71 -15 -10 3 -284 19 -279 27 8 60 28
60 36 0 6 7 19 16 29 16 17 18 17 35 -3 l18 -21 30 21 c16 12 41 35 55 51 29
36 36 37 36 9 0 -38 27 -3 46 59 10 31 20 59 23 62 3 3 13 18 21 34 19 37 55
45 63 14 8 -31 13 -23 36 62 27 103 36 246 21 345 -7 44 -14 94 -16 110 -13
116 -34 209 -57 260 -66 143 -137 227 -237 282 -36 20 -72 42 -81 50 -14 12
-67 26 -144 39 -16 3 -39 9 -50 14 -32 14 -181 31 -190 22z m-226 -457 c0 -5
-13 6 -29 25 -17 19 -30 39 -30 44 0 6 13 -5 30 -24 16 -19 29 -39 29 -45z
m-76 -92 c27 -36 30 -56 5 -35 -18 15 -51 72 -41 72 4 -1 20 -17 36 -37z m913
-268 c7 -19 14 -47 14 -63 0 -32 -40 -98 -55 -91 -10 4 -8 96 3 114 3 5 5 24
3 42 -3 44 16 42 35 -2z m115 -298 c-10 -9 -11 -8 -5 6 3 10 9 15 12 12 3 -3
0 -11 -7 -18z"/>
<path d="M728 2815 c-3 -3 -32 -10 -64 -15 l-59 -9 57 4 c48 3 116 24 82 25
-6 0 -13 -2 -16 -5z"/>
<path d="M872 2327 c-23 -24 -30 -81 -12 -92 6 -3 10 1 10 9 0 30 23 66 43 66
19 0 19 -1 4 -18 -22 -24 -23 -90 -1 -99 8 -3 13 -11 10 -19 -3 -7 2 -18 11
-25 43 -36 59 87 20 156 -27 48 -54 55 -85 22z"/>
<path d="M1238 2318 c-17 -15 -29 -43 -21 -52 3 -3 15 1 27 9 11 8 28 15 38
15 27 0 87 -58 96 -94 10 -37 26 -37 30 -1 4 29 -28 86 -65 115 -29 23 -81 26
-105 8z"/>
<path d="M1247 2262 c-22 -24 -23 -94 -2 -86 11 5 14 0 13 -16 -4 -29 25 -49
50 -34 48 30 53 94 10 134 -27 25 -50 26 -71 2z m65 -17 c0 -5 -5 -11 -11 -13
-6 -2 -11 4 -11 13 0 9 5 15 11 13 6 -2 11 -8 11 -13z"/>
<path d="M1597 1493 c13 -38 47 -140 75 -228 28 -88 68 -216 90 -285 21 -69
46 -172 54 -230 9 -58 20 -114 26 -125 16 -28 19 -62 12 -122 l-5 -52 -45 6
c-38 5 -55 1 -117 -30 -60 -30 -78 -45 -106 -88 -19 -29 -43 -74 -54 -99 -16
-39 -25 -48 -61 -59 -50 -15 -177 -78 -259 -128 -60 -36 -61 -36 -161 -35 -56
1 -117 -2 -136 -7 -22 -6 125 -9 403 -10 418 -1 438 0 456 18 11 11 18 21 15
23 -2 3 11 4 29 4 22 0 38 -7 50 -23 l18 -23 525 0 c343 0 532 4 545 10 10 6
19 7 19 3 0 -4 77 -10 170 -12 l170 -3 0 396 c0 369 -7 464 -25 355 -4 -22
-13 -43 -21 -46 -8 -3 -14 -18 -14 -33 0 -15 -7 -33 -15 -40 -8 -7 -15 -19
-15 -26 0 -8 -5 -13 -12 -12 -15 4 -29 -60 -14 -66 8 -3 8 -7 0 -13 -6 -4 -14
-29 -18 -56 -4 -26 -11 -45 -17 -42 -5 4 -9 -1 -9 -9 0 -9 -13 -25 -30 -37
-19 -15 -32 -35 -36 -58 -8 -40 -18 -51 -51 -51 -12 0 -27 -8 -32 -18 -13 -24
-87 -62 -122 -62 -16 0 -29 -5 -29 -11 0 -5 -13 -15 -30 -20 -17 -6 -30 -17
-30 -24 0 -15 -44 -25 -106 -25 -24 0 -44 -4 -44 -9 0 -5 -27 -7 -60 -4 -33 3
-88 0 -122 -7 -35 -6 -87 -12 -115 -11 -49 0 -69 -11 -40 -22 6 -3 0 -6 -15
-6 -14 -1 -33 -3 -41 -7 -8 -3 8 19 34 48 49 52 49 52 107 50 52 -1 69 2 127
24 11 4 23 6 28 6 4 -1 7 2 7 7 0 5 9 13 21 16 11 4 36 29 56 56 21 29 53 58
77 71 43 21 106 75 106 91 0 5 -9 -2 -20 -16 -12 -15 -55 -42 -98 -62 -42 -20
-97 -55 -122 -79 -58 -54 -79 -65 -141 -75 -37 -6 -54 -5 -63 5 -8 7 -17 10
-22 6 -5 -4 -2 1 5 10 15 20 26 25 15 7 -17 -28 19 4 109 98 54 57 96 107 93
112 -3 5 1 14 9 21 8 7 15 9 15 4 0 -4 12 4 28 19 l27 26 67 -28 c58 -25 67
-26 72 -12 3 9 10 23 15 31 5 8 16 31 25 50 l16 35 -6 -40 c-9 -54 4 -40 15
17 9 51 -7 58 -27 13 -18 -39 -123 -83 -153 -64 -10 6 -9 12 6 29 18 20 18 23
2 68 -29 80 -20 104 19 55 l21 -27 -1 25 c-1 16 4 24 14 23 9 -1 17 7 17 17 1
11 -2 19 -6 19 -4 0 -16 15 -26 33 -16 30 -16 36 -3 61 l15 28 22 -35 c12 -20
19 -42 15 -53 -4 -14 -3 -16 4 -5 7 10 26 12 71 9 33 -2 58 -2 56 1 -3 2 12
22 32 43 31 32 35 40 23 48 -10 7 -11 10 -2 11 6 1 17 2 22 3 14 1 111 98 105
104 -3 3 -15 -3 -27 -14 -15 -13 -12 -7 8 18 16 21 33 38 38 38 5 0 2 -7 -5
-17 -13 -15 -12 -15 8 -5 29 16 38 32 24 41 -8 5 -5 13 9 26 21 19 29 8 8 -13
-7 -7 -9 -12 -4 -12 4 0 45 39 91 87 l83 86 1 99 c1 96 -4 113 -29 83 -7 -8
-18 -15 -24 -15 -6 0 4 13 22 28 20 17 32 37 32 53 0 21 -17 8 -123 -96 -104
-104 -521 -498 -712 -675 -314 -290 -306 -283 -362 -297 -44 -11 -53 -9 -53
14 0 21 -26 44 -43 37 -9 -3 -20 2 -25 13 -9 16 -41 146 -72 293 -6 30 -25
116 -41 190 -17 74 -36 169 -44 210 -17 92 -84 363 -93 376 -8 13 -139 74
-157 74 -9 0 -5 -19 12 -67z m1592 -229 c-12 -13 -29 -24 -38 -24 -10 0 -3 12
19 35 19 20 36 31 38 25 2 -6 -6 -22 -19 -36z m-52 -122 c7 -7 13 -16 13 -20
0 -4 7 -16 15 -26 13 -17 17 -17 31 -5 16 13 16 12 6 -7 -17 -31 -44 -52 -49
-37 -3 9 -10 10 -24 3 -13 -8 -19 -7 -19 1 0 6 -9 22 -20 36 -19 24 -19 27 -3
54 21 36 10 48 -19 23 -21 -17 -21 -17 1 8 l24 28 16 -23 c8 -12 21 -28 28
-35z m132 9 c-32 -38 -59 -56 -43 -28 13 21 68 77 72 72 2 -2 -11 -22 -29 -44z
m-279 -54 c0 -8 -38 -47 -45 -47 -5 0 2 11 15 25 22 24 30 29 30 22z m-42
-166 c28 -45 29 -52 16 -66 -23 -22 -31 -19 -59 22 -27 41 -32 72 -13 91 15
15 19 12 56 -47z m38 -79 c-17 -16 -18 -16 -5 5 7 12 15 20 18 17 3 -2 -3 -12
-13 -22z m-86 -86 c0 -2 -8 -10 -17 -17 -16 -13 -17 -12 -4 4 13 16 21 21 21
13z m-271 -18 c-2 -2 -17 -14 -34 -28 l-30 -25 29 32 c16 18 32 31 34 28 3 -3
3 -6 1 -7z m-94 -88 c-10 -11 -22 -20 -28 -20 -5 0 1 9 14 20 31 25 37 25 14
0z m59 -75 c39 -55 41 -84 6 -65 -37 20 -80 120 -52 120 5 0 26 -25 46 -55z
m-653 -103 c12 -31 23 -65 24 -75 1 -10 8 -23 16 -28 8 -5 9 -9 3 -9 -6 0 -14
3 -18 8 -4 4 -22 13 -39 20 l-32 12 30 -5 c30 -5 30 -4 -5 12 -19 10 -37 19
-39 20 -8 5 22 112 30 107 4 -2 18 -30 30 -62z m469 64 c0 -2 -8 -10 -17 -17
-16 -13 -17 -12 -4 4 13 16 21 21 21 13z m240 -40 c0 -2 -8 -10 -17 -17 -16
-13 -17 -12 -4 4 13 16 21 21 21 13z m-237 -106 c38 -55 44 -70 27 -70 -11 0
-90 105 -90 120 0 23 26 2 63 -50z m-605 9 c9 0 -2 -6 -26 -14 -58 -18 -106
-57 -138 -110 -15 -26 -31 -42 -37 -38 -7 4 -8 0 -4 -11 5 -11 3 -15 -5 -10
-7 5 -9 2 -6 -8 4 -9 0 -15 -8 -15 -18 0 -19 -4 13 53 32 59 53 85 64 79 4 -3
10 -1 14 5 3 5 1 10 -6 10 -6 0 -1 8 12 19 13 10 30 16 38 13 8 -3 12 -1 8 5
-4 6 -1 11 6 10 6 0 21 1 32 2 17 1 18 3 5 12 -12 9 -12 10 3 5 10 -3 26 -6
35 -7z m49 5 c-3 -3 -12 -4 -19 -1 -8 3 -5 6 6 6 11 1 17 -2 13 -5z m683 -28
c0 -2 -8 -10 -17 -17 -16 -13 -17 -12 -4 4 13 16 21 21 21 13z m-480 -63 c0
-7 -39 17 -46 28 -3 6 5 3 20 -6 14 -10 26 -19 26 -22z m410 -18 c-7 -9 -15
-13 -18 -10 -3 2 1 11 8 20 7 9 15 13 18 10 3 -2 -1 -11 -8 -20z m-220 -61
c18 -25 30 -47 28 -50 -5 -4 -68 80 -68 90 0 14 11 3 40 -40z m-406 10 c22
-22 20 -25 -9 -12 -19 8 -28 8 -40 -2 -36 -30 3 -83 45 -60 14 8 20 8 20 0 0
-14 -41 -29 -60 -22 -50 17 -63 59 -30 92 24 24 53 26 74 4z m566 -9 c-7 -9
-15 -13 -19 -10 -3 3 1 10 9 15 21 14 24 12 10 -5z m-535 -35 c4 -6 -5 -10
-19 -10 -14 0 -26 5 -26 10 0 6 9 10 19 10 11 0 23 -4 26 -10z"/>
<path d="M1689 363 c-13 -16 -12 -17 4 -4 16 13 21 21 13 21 -2 0 -10 -8 -17
-17z"/>
<path d="M1630 298 c-16 -27 -29 -63 -17 -47 15 19 47 79 43 79 -4 0 -15 -15
-26 -32z"/>
<path d="M563 1453 c-3 -10 -8 -22 -10 -28 -3 -5 3 -1 11 9 16 20 21 36 11 36
-3 0 -8 -8 -12 -17z"/>
<path d="M502 1255 c0 -16 2 -22 5 -12 2 9 2 23 0 30 -3 6 -5 -1 -5 -18z"/>
<path d="M492 1170 c0 -19 2 -27 5 -17 2 9 2 25 0 35 -3 9 -5 1 -5 -18z"/>
<path d="M721 1184 c0 -11 3 -14 6 -6 3 7 2 16 -1 19 -3 4 -6 -2 -5 -13z"/>
<path d="M503 1080 c0 -25 2 -35 4 -22 2 12 2 32 0 45 -2 12 -4 2 -4 -23z"/>
<path d="M741 1108 c0 -7 4 -22 9 -33 7 -16 8 -14 7 12 -1 18 -5 33 -9 33 -5
0 -8 -6 -7 -12z"/>
<path d="M511 888 c-2 -82 -4 -203 -5 -271 -1 -83 -5 -124 -12 -124 -6 0 -9 8
-7 16 3 14 -4 16 -41 13 -37 -3 -46 -1 -46 12 0 12 -10 16 -40 16 l-40 0 0
-40 c0 -33 -3 -40 -20 -40 -13 0 -20 7 -20 19 0 17 -8 19 -60 20 l-60 0 0 -40
c0 -32 -3 -39 -20 -39 -17 0 -20 7 -20 40 l0 40 -40 0 -40 0 0 -40 c0 -33 -3
-40 -20 -40 -19 0 -20 -7 -20 -215 l0 -215 389 0 389 0 17 28 c29 45 66 72
153 112 45 21 82 41 82 44 0 7 -31 -4 -47 -16 -6 -5 -53 -18 -104 -28 -54 -11
-105 -28 -122 -41 -91 -67 -174 -27 -242 117 -38 81 -47 210 -17 237 18 17 20
27 15 94 -3 41 0 139 7 217 8 94 10 163 4 206 -9 60 -10 54 -13 -82z m-50
-461 c-14 -36 -22 -34 -11 2 4 16 7 32 6 34 -2 2 1 1 6 -3 5 -4 4 -18 -1 -33z
m-1 -115 c-7 -13 -9 -8 -9 23 0 35 1 37 10 17 6 -15 5 -30 -1 -40z"/>
<path d="M770 1025 c0 -5 5 -17 10 -25 5 -8 10 -10 10 -5 0 6 -5 17 -10 25 -5
8 -10 11 -10 5z"/>
<path d="M890 906 c0 -8 4 -17 9 -20 5 -4 7 3 4 14 -6 23 -13 26 -13 6z"/>
<path d="M960 848 c-19 -95 -33 -99 -49 -16 l-9 43 -1 -41 c-1 -27 5 -46 15
-55 22 -18 46 -68 39 -79 -7 -12 3 -12 30 0 19 8 19 9 1 9 -17 1 -18 7 -11
101 3 55 5 100 2 100 -2 0 -10 -28 -17 -62z"/>
<path d="M1368 843 c23 -2 59 -2 80 0 20 2 1 4 -43 4 -44 0 -61 -2 -37 -4z"/>
<path d="M1498 833 c6 -2 18 -2 25 0 6 3 1 5 -13 5 -14 0 -19 -2 -12 -5z"/>
<path d="M1568 809 c6 -7 13 -33 13 -58 1 -26 3 -38 6 -28 5 21 29 21 63 2 14
-8 30 -14 35 -14 6 0 -12 11 -38 25 -27 14 -52 35 -57 48 -5 13 -15 27 -22 31
-10 6 -11 5 0 -6z"/>
<path d="M1168 789 c-21 -11 -38 -22 -38 -24 0 -5 79 32 89 41 12 11 -18 1
-51 -17z"/>
<path d="M320 710 c0 -22 -4 -40 -10 -40 -5 0 -10 -18 -10 -40 l0 -40 60 0 60
0 0 40 c0 33 -3 40 -20 40 -15 0 -20 7 -20 26 0 29 -21 54 -44 54 -12 0 -16
-10 -16 -40z"/>
<path d="M1035 725 c-25 -12 -26 -14 -5 -9 28 7 60 23 45 23 -5 0 -23 -6 -40
-14z"/>
<path d="M1743 700 c71 -13 63 -31 -17 -38 -30 -2 -63 1 -75 7 -16 9 -21 9
-21 -1 0 -7 4 -18 8 -23 9 -13 62 -16 62 -3 0 6 6 8 14 5 8 -3 31 -1 50 4 65
18 39 61 -34 58 -18 -1 -14 -3 13 -9z"/>
<path d="M2775 690 c3 -5 14 -10 23 -10 15 0 15 2 2 10 -20 13 -33 13 -25 0z"/>
<path d="M725 676 c11 -8 16 -20 12 -29 -6 -15 -3 -15 29 0 39 19 35 28 -20
36 -34 5 -36 4 -21 -7z"/>
<path d="M1567 658 c-4 -12 -4 -24 -2 -27 3 -2 5 1 5 8 0 7 4 10 9 7 5 -4 7 3
4 14 -7 25 -9 25 -16 -2z"/>
<path d="M2901 663 c-1 -25 -17 -39 -24 -21 -2 7 -3 4 -1 -6 2 -11 -2 -26 -8
-33 -7 -9 -7 -13 1 -13 15 0 43 58 38 78 -3 12 -5 11 -6 -5z"/>
<path d="M483 590 c0 -25 2 -35 4 -22 2 12 2 32 0 45 -2 12 -4 2 -4 -23z"/>
<path d="M1620 600 c-6 -11 -8 -20 -6 -20 3 0 10 9 16 20 6 11 8 20 6 20 -3 0
-10 -9 -16 -20z"/>
<path d="M2284 591 c0 -11 5 -17 13 -14 10 4 11 9 2 19 -15 18 -15 18 -15 -5z"/>
<path d="M2333 593 c9 -2 23 -2 30 0 6 3 -1 5 -18 5 -16 0 -22 -2 -12 -5z"/>
<path d="M1541 583 c-1 -6 -4 -20 -7 -30 -5 -17 -5 -17 6 0 6 10 9 23 6 30 -3
9 -5 9 -5 0z"/>
<path d="M623 543 c-42 -21 -51 -43 -17 -41 15 2 34 14 46 30 22 32 17 34 -29
11z"/>
<path d="M1327 443 c-68 -73 -128 -144 -101 -120 11 9 26 17 32 17 7 0 11 3
10 8 -5 17 26 55 77 92 51 38 68 60 46 60 -5 0 -34 -26 -64 -57z"/>
<path d="M2821 463 c-1 -6 -4 -20 -7 -30 -5 -17 -5 -17 6 0 6 10 9 23 6 30 -3
9 -5 9 -5 0z"/>
<path d="M1484 436 c-3 -8 -4 -29 -2 -48 3 -29 4 -27 8 15 5 48 3 58 -6 33z"/>
<path d="M1169 279 l-24 -20 28 17 c15 9 27 18 27 20 0 8 -8 4 -31 -17z"/>
<path d="M1821 11 c-9 -6 -6 -8 13 -8 14 0 23 3 20 8 -7 11 -15 11 -33 0z"/>
</g>
</svg>
